<svg width="512" height="512" viewBox="0 0 512 512" fill="none" xmlns="http://www.w3.org/2000/svg">
<path d="M235.688 21H377.514C394.08 22.5605 407.538 29.2342 417.886 41.0209C427.571 52.0457 432.601 65.5307 432.601 80.365C432.552 195.142 432.568 310.748 432.647 427.183C432.653 433.964 432.271 439.377 431.5 443.422C426.451 469.868 404.117 488.907 377.229 491H135.335C107.943 488.806 85.2694 468.96 80.8999 441.843C80.3307 438.318 80.0492 432.749 80.0553 425.136C80.1226 345.04 80.1043 264.837 80.0002 184.527C79.988 177.648 80.4317 172.052 81.3313 167.737C83.6629 156.538 89.2014 146.575 97.9465 137.848C129.714 106.148 161.77 74.08 194.113 41.6451C199.15 36.5963 203.433 32.9152 206.965 30.602C215.495 25.0085 225.07 21.8078 235.688 21Z" fill="white"/>
</svg>
