<svg width="512" height="512" viewBox="0 0 512 512" fill="none" xmlns="http://www.w3.org/2000/svg">
<path d="M138.67 264.94C114.923 234.933 103.82 201.15 105.36 163.59C107.29 116.63 132.16 73.25 171.32 46.75C219.64 14.07 283.54 12.92 332.8 43.61C409.56 91.42 427.11 194.31 370.26 264.84C369.98 265.2 370.037 265.493 370.43 265.72C376.64 269.33 382.96 273.13 388.79 277.18C451.61 320.88 488.82 391.83 489.13 468.75C489.18 480.61 480.35 490.46 468.2 490.63C459.03 490.75 451.03 485.21 447.83 476.75C447.037 474.637 446.567 470.947 446.42 465.68C445.113 418.52 429.127 377.423 398.46 342.39C381.29 322.77 359.8 307.06 336.19 295.93C336.077 295.875 335.953 295.85 335.828 295.857C335.704 295.864 335.584 295.903 335.48 295.97C285.77 327.77 223.62 328.07 173.85 296.16C173.583 295.987 173.303 295.967 173.01 296.1C105.82 327.65 63.52 393.2 62.55 467.57C62.5033 471.243 62.0533 474.237 61.2 476.55C54.25 495.39 27.61 495.29 20.98 476.19C20.0333 473.47 19.6633 468.98 19.87 462.72C22.62 379.98 66.68 306.25 138.58 265.41C138.619 265.389 138.653 265.359 138.68 265.322C138.706 265.286 138.724 265.244 138.733 265.199C138.741 265.155 138.74 265.108 138.729 265.063C138.718 265.019 138.698 264.977 138.67 264.94ZM361.11 170.66C361.11 156.657 358.352 142.791 352.993 129.854C347.635 116.918 339.78 105.163 329.879 95.2612C319.977 85.3597 308.222 77.5054 295.286 72.1467C282.349 66.7881 268.483 64.03 254.48 64.03C226.2 64.03 199.078 75.2642 179.081 95.2612C159.084 115.258 147.85 142.38 147.85 170.66C147.85 198.94 159.084 226.062 179.081 246.059C199.078 266.056 226.2 277.29 254.48 277.29C268.483 277.29 282.349 274.532 295.286 269.173C308.222 263.815 319.977 255.96 329.879 246.059C339.78 236.157 347.635 224.402 352.993 211.466C358.352 198.529 361.11 184.663 361.11 170.66Z" fill="white"/>
</svg>
